<svg width="699" height="226" viewBox="0 0 699 226" fill="none" xmlns="http://www.w3.org/2000/svg">
<mask id="mask0_165_26239" style="mask-type:alpha" maskUnits="userSpaceOnUse" x="0" y="0" width="185" height="226">
<path d="M119.222 116.139L185 10.7917L100.722 0L0 31.8611V116.139L5.65278 225.083H185L119.222 116.139Z" fill="#D9D9D9"/>
</mask>
<g mask="url(#mask0_165_26239)">
<circle cx="111" cy="115.112" r="92.4722" stroke="url(#paint0_linear_165_26239)" stroke-width="35"/>
</g>
<circle cx="111" cy="112.028" r="28.7778" fill="url(#paint1_linear_165_26239)"/>
<circle cx="684.5" cy="147.5" r="14.5" fill="url(#paint2_linear_165_26239)"/>
<path d="M190.26 162V131.53L193.45 140.33L160.01 85H175.3L202.14 129.55H193.56L220.62 85H234.7L201.26 140.33L204.56 131.53V162H190.26ZM243.098 162V85H279.178C288.418 85 295.458 86.8333 300.298 90.5C305.138 94.0933 307.558 98.9333 307.558 105.02C307.558 109.127 306.604 112.647 304.698 115.58C302.791 118.44 300.224 120.677 296.998 122.29C293.844 123.83 290.398 124.6 286.658 124.6L288.638 120.64C292.964 120.64 296.851 121.447 300.298 123.06C303.744 124.6 306.458 126.873 308.438 129.88C310.491 132.887 311.518 136.627 311.518 141.1C311.518 147.7 308.988 152.833 303.928 156.5C298.868 160.167 291.351 162 281.378 162H243.098ZM257.398 150.78H280.498C285.851 150.78 289.958 149.9 292.818 148.14C295.678 146.38 297.108 143.557 297.108 139.67C297.108 135.857 295.678 133.07 292.818 131.31C289.958 129.477 285.851 128.56 280.498 128.56H256.298V117.45H277.638C282.624 117.45 286.438 116.57 289.078 114.81C291.791 113.05 293.148 110.41 293.148 106.89C293.148 103.297 291.791 100.62 289.078 98.86C286.438 97.1 282.624 96.22 277.638 96.22H257.398V150.78ZM351.538 162V93.84H324.658V78H397.858V93.84H370.978V162H351.538ZM426.197 111.84H466.637V126.96H426.197V111.84ZM427.637 146.4H473.357V162H408.317V78H471.797V93.6H427.637V146.4ZM506.225 142.8L505.145 120.36L545.345 78H566.945L530.705 117L519.905 128.52L506.225 142.8ZM488.825 162V78H508.145V162H488.825ZM546.305 162L516.425 125.4L529.145 111.6L568.985 162H546.305ZM595.053 142.8L593.973 120.36L634.173 78H655.773L619.533 117L608.733 128.52L595.053 142.8ZM577.653 162V78H596.973V162H577.653ZM635.133 162L605.253 125.4L617.973 111.6L657.813 162H635.133Z" fill="white"/>
<defs>
<linearGradient id="paint0_linear_165_26239" x1="-80.0001" y1="115" x2="220.973" y2="114.57" gradientUnits="userSpaceOnUse">
<stop stop-color="#30F5EA"/>
<stop offset="1" stop-color="#E756FF"/>
</linearGradient>
<linearGradient id="paint1_linear_165_26239" x1="82.2224" y1="112.028" x2="139.778" y2="112.028" gradientUnits="userSpaceOnUse">
<stop stop-color="#75BAF2"/>
<stop offset="1" stop-color="#9F96F7"/>
</linearGradient>
<linearGradient id="paint2_linear_165_26239" x1="670" y1="147.5" x2="699" y2="147.5" gradientUnits="userSpaceOnUse">
<stop stop-color="#B483F9"/>
<stop offset="1" stop-color="#9F96F7"/>
</linearGradient>
</defs>
</svg>
