<svg width="2159" height="2639" viewBox="0 0 2159 2639" fill="none" xmlns="http://www.w3.org/2000/svg">
<path fill-rule="evenodd" clip-rule="evenodd" d="M3.89294 2639C2.5968 2638.33 1.29919 2637.66 0 2637V2632.7C24.4313 2613.95 46.751 2589.4 68.6147 2565.35C78.4994 2554.48 88.2909 2543.71 98.1422 2533.63C208.024 2421.14 306.907 2285.46 349.14 2125.3C367.199 2056.82 377.675 1986.15 388.149 1915.5C402.275 1820.22 416.397 1724.96 449.114 1635.1C487.124 1530.72 553.105 1446.56 619.194 1362.28C672.084 1294.82 725.044 1227.27 763.792 1149.2C807.91 1060.31 825.218 961.572 842.537 862.777C859.31 767.095 876.092 671.359 917.247 584.468C981.414 448.987 1096.84 359.426 1209.81 271.768C1245.81 243.837 1281.56 216.1 1315.32 187.132C1382.26 129.695 1444.56 66.8561 1503.15 0H2145.85C2150.24 2.70258 2154.62 5.40527 2159 8.1084V536.47C2107.24 575.77 2053.04 611.346 1996.65 642.864C1963.42 661.438 1929.63 678.786 1895.84 696.132C1840.48 724.555 1785.12 752.973 1732.27 786.767C1667.78 827.996 1606.43 876.926 1564.59 945.668C1528.26 1005.34 1514.87 1079.13 1508.44 1149.2C1504.81 1188.72 1503.42 1229.21 1502.01 1269.91C1498.95 1358.8 1495.85 1448.73 1469.39 1531.9C1436.24 1636.12 1365.08 1709.39 1293.86 1782.73C1230.47 1848.01 1167.02 1913.34 1130.26 2000.6C1098.1 2076.93 1090.96 2161.39 1089.04 2244.21C1088.31 2275.74 1088.37 2307.51 1088.44 2339.36C1088.63 2435.01 1088.82 2531.37 1067.54 2624.1C1066.39 2629.11 1065.16 2634.08 1063.85 2639H3.89294Z" fill="url(#paint0_linear_0_1)"/>
<defs>
<linearGradient id="paint0_linear_0_1" x1="1241" y1="-267" x2="1241" y2="3066" gradientUnits="userSpaceOnUse">
<stop stop-color="#96CEF7"/>
<stop offset="1" stop-color="#B483F9" stop-opacity="0.2"/>
</linearGradient>
</defs>
</svg>
